#!OML:ASF E:\VariousWalksJay\Project 1\Capture day 1\Session 1\Actor2.ASF
:FULLY-SPECIFIED
:DEGREES
1184
root 6.83641 13.6688 34.2886 38.0927 -54.021 0.977081
lowerback 5.03238 -0.953422 -17.1884
upperback 5.51455 -1.82938 -5.82435
thorax 3.45323 -1.47856 3.38112
lowerneck -6.10674 -2.92403 -8.05734
upperneck -11.4219 -2.04757 34.0938
head -1.41858 -2.02135 12.7642
rclavicle -3.97569e-014 -2.38542e-014
rhumerus -68.42 16.7086 -123.316
rradius 63.0759
rwrist 0.825462
rhand 23.5357 32.951
rfingers 7.12502
rthumb 47.8135 10.6516
lclavicle -3.97569e-014 -2.38542e-014
lhumerus -76.6232 -26.1517 133.281
lradius 59.7852
lwrist -7.71707
lhand -19.8125 -34.9487
lfingers 7.12502
lthumb 6.52081 -365.069
rfemur -81.2122 -0.694172 39.9525
rtibia 82.6308
rfoot -43.3163 -29.2402
rtoes 3.20064
lfemur -82.3139 6.05048 -49.3279
ltibia 5.22255
lfoot -15.4017 22.3387
ltoes -17.8224
1185
root 6.82267 13.7225 34.3118 37.764 -54.1268 0.876706
lowerback 4.65612 -0.954915 -17.171
upperback 5.468 -1.74929 -5.7514
thorax 3.60266 -1.44739 3.4386
lowerneck -5.99006 -3.17655 -8.13692
upperneck -11.289 -2.45284 34.1154
head -1.30521 -2.21383 12.7619
rclavicle 6.36111e-015 -4.92986e-014
rhumerus -68.3815 16.7013 -123.383
rradius 62.9629
rwrist 0.382282
rhand 23.5504 32.493
rfingers 7.12502
rthumb 47.8271 10.1999
lclavicle 6.36111e-015 -4.92986e-014
lhumerus -76.6222 -26.0958 133.308
lradius 59.7818
lwrist -7.31396
lhand -19.2497 -34.775
lfingers 7.12502
lthumb 7.06411 -364.913
rfemur -80.3653 -1.06669 39.9878
rtibia 82.0848
rfoot -43.1328 -28.9109
rtoes 3.16913
lfemur -82.1548 6.44712 -49.4284
ltibia 5.85559
lfoot -15.3283 21.4858
ltoes -15.5933
1186
root 6.80818 13.7822 34.3355 37.3732 -54.211 0.770336
lowerback 4.30594 -0.953558 -17.1229
upperback 5.43115 -1.66985 -5.67927
thorax 3.74638 -1.41556 3.48022
lowerneck -5.88612 -3.44821 -8.203
upperneck -11.1601 -2.88673 34.1009
head -1.18551 -2.41864 12.7387
rclavicle -3.18055e-014 1.44715e-013
rhumerus -68.37 16.733 -123.475
rradius 62.8728
rwrist -0.172038
rhand 23.602 31.9968
rfingers 7.12502
rthumb 47.8746 9.72566
lclavicle -3.18055e-014 1.44715e-013
lhumerus -76.6432 -26.0437 133.341
lradius 59.7809
lwrist -6.94702
lhand -18.719 -34.5885
lfingers 7.12502
lthumb 7.57636 -364.744
rfemur -79.4053 -1.43929 39.9946
rtibia 81.4718
rfoot -42.9503 -28.6113
rtoes 3.16059
lfemur -82.0196 6.87926 -49.4962
ltibia 6.6988
lfoot -15.2523 20.4823
ltoes -13.536
1187
root 6.79293 13.8478 34.3596 36.9136 -54.2691 0.660088
lowerback 3.99022 -0.952871 -17.0422
upperback 5.40262 -1.59802 -5.60642
thorax 3.8794 -1.38593 3.50679
lowerneck -5.79455 -3.73887 -8.25721
upperneck -11.0162 -3.35314 34.0473
head -1.05396 -2.63568 12.6925
rclavicle -1.08139e-013 6.36111e-015
rhumerus -68.3593 16.7755 -123.591
rradius 62.7657
rwrist -0.807058
rhand 23.7246 31.4163
rfingers 7.12502
rthumb 47.9877 9.19777
lclavicle -1.08139e-013 6.36111e-015
lhumerus -76.6786 -25.9923 133.393
lradius 59.7637
lwrist -6.63413
lhand -18.2348 -34.377
lfingers 7.12502
lthumb 8.04369 -364.55
rfemur -78.3289 -1.81594 39.9748
rtibia 80.7923
rfoot -42.7466 -28.3661
rtoes 3.10331
lfemur -81.9041 7.34742 -49.5275
ltibia 7.76557
lfoot -15.171 19.3328
ltoes -11.7992
1188
root 6.77682 13.9191 34.384 36.3869 -54.2972 0.547919
lowerback 3.70941 -0.953448 -16.9283
upperback 5.38366 -1.53473 -5.53363
thorax 4.00302 -1.35904 3.5169
lowerneck -5.71878 -4.04943 -8.29537
upperneck -10.8475 -3.85541 33.9558
head -0.907011 -2.86574 12.6221
rclavicle -2.38542e-014 -5.08889e-014
rhumerus -68.3495 16.8352 -123.737
rradius 62.6559
rwrist -1.56321
rhand 23.8839 30.6554
rfingers 7.12502
rthumb 48.1345 8.50559
lclavicle -2.38542e-014 -5.08889e-014
lhumerus -76.7334 -25.9525 133.47
lradius 59.7245
lwrist -6.39173
lhand -17.8175 -34.1435
lfingers 7.12502
lthumb 8.44651 -364.332
rfemur -77.1406 -2.19884 39.931
rtibia 80.0475
rfoot -42.5445 -28.1502
rtoes 3.07625
lfemur -81.8036 7.84693 -49.5198
ltibia 9.05686
lfoot -15.0667 18.0425
ltoes -10.5472
1189
root 6.75982 13.9954 34.409 35.8011 -54.288 0.435128
lowerback 3.47063 -0.964966 -16.7838
upperback 5.3654 -1.49548 -5.45121
thorax 4.10679 -1.34148 3.52234
lowerneck -5.64108 -4.37317 -8.35374
upperneck -10.643 -4.38356 33.8392
head -0.745984 -3.10319 12.5414
rclavicle -3.02153e-014 -8.26944e-014
rhumerus -68.3582 16.9094 -123.897
rradius 62.534
rwrist -2.36676
rhand 24.1116 29.8858
rfingers 7.12502
rthumb 48.3443 7.83527
lclavicle -3.02153e-014 -8.26944e-014
lhumerus -76.7902 -25.8989 133.572
lradius 59.6484
lwrist -6.25138
lhand -17.4904 -33.8793
lfingers 7.12502
lthumb 8.76216 -364.081
rfemur -75.8532 -2.58701 39.8646
rtibia 79.2421
rfoot -42.3382 -27.9713
rtoes 3.06045
lfemur -81.7078 8.36731 -49.4695
ltibia 10.5595
lfoot -14.9421 16.6106
ltoes -9.81203
1190
root 6.74196 14.0759 34.4349 35.1718 -54.2424 0.318209
lowerback 3.27341 -0.98039 -16.5983
upperback 5.34333 -1.47146 -5.36638
thorax 4.18352 -1.32773 3.51004
lowerneck -5.56243 -4.71529 -8.41311
upperneck -10.3975 -4.94665 33.6923
head -0.568411 -3.35268 12.4432
rclavicle 4.45278e-014 -3.33958e-014
rhumerus -68.408 17.0001 -124.064
rradius 62.4489
rwrist -3.22959
rhand 24.4602 28.9861
rfingers 7.12502
rthumb 48.6651 7.08966
lclavicle 4.45278e-014 -3.33958e-014
lhumerus -76.8658 -25.8584 133.707
lradius 59.5381
lwrist -6.18499
lhand -17.2348 -33.5921
lfingers 7.12502
lthumb 9.0088 -363.804
rfemur -74.482 -2.9737 39.7785
rtibia 78.381
rfoot -42.1182 -27.8373
rtoes 3.04417
lfemur -81.6071 8.89485 -49.3282
ltibia 12.2559
lfoot -14.7759 15.0912
ltoes -9.54404
1191
root 6.72311 14.1593 34.4622 34.5176 -54.1649 0.193816
lowerback 3.11183 -1.00445 -16.3773
upperback 5.31031 -1.46844 -5.27455
thorax 4.23023 -1.32033 3.48742
lowerneck -5.46631 -5.06631 -8.50033
upperneck -10.1146 -5.52794 33.5326
head -0.380501 -3.60738 12.3424
rclavicle 6.67916e-014 8.42847e-014
rhumerus -68.4697 17.0783 -124.218
rradius 62.3641
rwrist -4.06947
rhand 24.9208 28.049
rfingers 7.12502
rthumb 49.0884 6.36046
lclavicle 6.67916e-014 8.42847e-014
lhumerus -76.9442 -25.8066 133.853
lradius 59.4016
lwrist -6.18813
lhand -17.033 -33.2907
lfingers 7.12502
lthumb 9.20352 -363.512
rfemur -73.0479 -3.35746 39.6797
rtibia 77.4721
rfoot -41.9041 -27.7228
rtoes 3.08306
lfemur -81.5123 9.4333 -49.1512
ltibia 14.1285
lfoot -14.5716 13.4335
ltoes -9.81423
1192
root 6.70319 14.2448 34.4912 33.8545 -54.0605 0.0617298
lowerback 2.9764 -1.03899 -16.1253
upperback 5.26039 -1.48733 -5.17436
thorax 4.24623 -1.31968 3.45805
lowerneck -5.35707 -5.42223 -8.61209
upperneck -9.78425 -6.12376 33.3496
head -0.180324 -3.86413 12.234
rclavicle -6.67916e-014 -9.54166e-014
rhumerus -68.552 17.1407 -124.351
rradius 62.2902
rwrist -4.85697
rhand 25.5055 27.0505
rfingers 7.12502
rthumb 49.6249 5.63302
lclavicle -6.67916e-014 -9.54166e-014
lhumerus -77.0146 -25.7374 134.004
lradius 59.2407
lwrist -6.23525
lhand -16.8673 -32.9856
lfingers 7.12502
lthumb 9.36341 -363.214
rfemur -71.5655 -3.72659 39.5647
rtibia 76.5027
rfoot -41.6737 -27.6338
rtoes 3.15704
lfemur -81.4121 9.97897 -48.9448
ltibia 16.1383
lfoot -14.3333 11.6296
ltoes -10.6445
